<mxfile host="app.diagrams.net" agent="Mozilla/5.0 (Windows NT 10.0; Win64; x64) AppleWebKit/537.36 (KHTML, like Gecko) Chrome/135.0.0.0 Safari/537.36" version="26.2.14">
  <diagram name="Page-1" id="8jDfEkX-kje20LIcly3f">
    <mxGraphModel dx="872" dy="439" grid="1" gridSize="10" guides="1" tooltips="1" connect="1" arrows="1" fold="1" page="1" pageScale="1" pageWidth="850" pageHeight="1100" math="0" shadow="0">
      <root>
        <mxCell id="0" />
        <mxCell id="1" parent="0" />
        <mxCell id="0LPRw-rULbMQdsDEz7wD-1" style="edgeStyle=orthogonalEdgeStyle;rounded=0;orthogonalLoop=1;jettySize=auto;html=1;entryX=0.5;entryY=0;entryDx=0;entryDy=0;" edge="1" parent="1" source="0LPRw-rULbMQdsDEz7wD-2" target="0LPRw-rULbMQdsDEz7wD-4">
          <mxGeometry relative="1" as="geometry" />
        </mxCell>
        <mxCell id="0LPRw-rULbMQdsDEz7wD-2" value="" style="ellipse;html=1;shape=startState;fillColor=#000000;strokeColor=#ff0000;rounded=1;shadow=0;comic=0;labelBackgroundColor=none;fontFamily=Verdana;fontSize=12;fontColor=#000000;align=center;direction=south;" vertex="1" parent="1">
          <mxGeometry x="410" y="60" width="30" height="30" as="geometry" />
        </mxCell>
        <mxCell id="0LPRw-rULbMQdsDEz7wD-3" style="edgeStyle=orthogonalEdgeStyle;rounded=0;orthogonalLoop=1;jettySize=auto;html=1;entryX=0.5;entryY=0;entryDx=0;entryDy=0;strokeColor=light-dark(#000000,#EDEDED);" edge="1" parent="1" source="0LPRw-rULbMQdsDEz7wD-4" target="0LPRw-rULbMQdsDEz7wD-8">
          <mxGeometry relative="1" as="geometry" />
        </mxCell>
        <mxCell id="0LPRw-rULbMQdsDEz7wD-4" value="Available" style="rounded=1;whiteSpace=wrap;html=1;arcSize=24;fillColor=#ffffc0;strokeColor=#ff0000;shadow=0;comic=0;labelBackgroundColor=none;fontFamily=Verdana;fontSize=12;fontColor=#000000;align=center;" vertex="1" parent="1">
          <mxGeometry x="380" y="140" width="90" height="50" as="geometry" />
        </mxCell>
        <mxCell id="0LPRw-rULbMQdsDEz7wD-5" value="" style="ellipse;html=1;shape=endState;fillColor=#000000;strokeColor=#ff0000;rounded=1;shadow=0;comic=0;labelBackgroundColor=none;fontFamily=Verdana;fontSize=12;fontColor=#000000;align=center;" vertex="1" parent="1">
          <mxGeometry x="410" y="560" width="30" height="30" as="geometry" />
        </mxCell>
        <mxCell id="0LPRw-rULbMQdsDEz7wD-6" style="edgeStyle=orthogonalEdgeStyle;rounded=0;orthogonalLoop=1;jettySize=auto;html=1;entryX=0.5;entryY=0;entryDx=0;entryDy=0;" edge="1" parent="1" source="0LPRw-rULbMQdsDEz7wD-8" target="0LPRw-rULbMQdsDEz7wD-11">
          <mxGeometry relative="1" as="geometry" />
        </mxCell>
        <mxCell id="0LPRw-rULbMQdsDEz7wD-7" style="edgeStyle=orthogonalEdgeStyle;rounded=0;orthogonalLoop=1;jettySize=auto;html=1;entryX=0.5;entryY=0;entryDx=0;entryDy=0;exitX=0.5;exitY=1;exitDx=0;exitDy=0;" edge="1" parent="1" source="0LPRw-rULbMQdsDEz7wD-11" target="0LPRw-rULbMQdsDEz7wD-13">
          <mxGeometry relative="1" as="geometry" />
        </mxCell>
        <mxCell id="0LPRw-rULbMQdsDEz7wD-8" value="Reserved" style="rounded=1;whiteSpace=wrap;html=1;arcSize=24;fillColor=#ffffc0;strokeColor=#ff0000;shadow=0;comic=0;labelBackgroundColor=none;fontFamily=Verdana;fontSize=12;fontColor=#000000;align=center;" vertex="1" parent="1">
          <mxGeometry x="380" y="250" width="90" height="50" as="geometry" />
        </mxCell>
        <mxCell id="0LPRw-rULbMQdsDEz7wD-9" value="Booking confirmed" style="text;html=1;align=center;verticalAlign=middle;whiteSpace=wrap;rounded=0;" vertex="1" parent="1">
          <mxGeometry x="310" y="200" width="110" height="30" as="geometry" />
        </mxCell>
        <mxCell id="0LPRw-rULbMQdsDEz7wD-11" value="Occupied" style="rounded=1;whiteSpace=wrap;html=1;arcSize=24;fillColor=#ffffc0;strokeColor=#ff0000;shadow=0;comic=0;labelBackgroundColor=none;fontFamily=Verdana;fontSize=12;fontColor=#000000;align=center;" vertex="1" parent="1">
          <mxGeometry x="380" y="360" width="90" height="50" as="geometry" />
        </mxCell>
        <mxCell id="0LPRw-rULbMQdsDEz7wD-20" style="edgeStyle=orthogonalEdgeStyle;rounded=0;orthogonalLoop=1;jettySize=auto;html=1;entryX=0.5;entryY=0;entryDx=0;entryDy=0;" edge="1" parent="1" source="0LPRw-rULbMQdsDEz7wD-13" target="0LPRw-rULbMQdsDEz7wD-5">
          <mxGeometry relative="1" as="geometry" />
        </mxCell>
        <mxCell id="0LPRw-rULbMQdsDEz7wD-13" value="Available" style="rounded=1;whiteSpace=wrap;html=1;arcSize=24;fillColor=#ffffc0;strokeColor=#ff0000;shadow=0;comic=0;labelBackgroundColor=none;fontFamily=Verdana;fontSize=12;fontColor=#000000;align=center;" vertex="1" parent="1">
          <mxGeometry x="380" y="460" width="90" height="50" as="geometry" />
        </mxCell>
        <mxCell id="0LPRw-rULbMQdsDEz7wD-14" value="Guest checks out" style="text;html=1;align=center;verticalAlign=middle;whiteSpace=wrap;rounded=0;" vertex="1" parent="1">
          <mxGeometry x="330" y="420" width="90" height="30" as="geometry" />
        </mxCell>
        <mxCell id="0LPRw-rULbMQdsDEz7wD-18" value="Guest checks in" style="text;html=1;align=center;verticalAlign=middle;whiteSpace=wrap;rounded=0;" vertex="1" parent="1">
          <mxGeometry x="425" y="320" width="100" height="30" as="geometry" />
        </mxCell>
        <mxCell id="0LPRw-rULbMQdsDEz7wD-19" value="Room is free to be booked" style="text;html=1;align=center;verticalAlign=middle;whiteSpace=wrap;rounded=0;" vertex="1" parent="1">
          <mxGeometry x="425" y="100" width="120" height="30" as="geometry" />
        </mxCell>
      </root>
    </mxGraphModel>
  </diagram>
</mxfile>
